<svg width="278" height="64" viewBox="0 0 278 64" fill="none" xmlns="http://www.w3.org/2000/svg">
<path d="M48.7217 11.2266C50.3045 11.2266 51.5879 12.51 51.5879 14.0928V49.918C51.5877 51.5006 50.3044 52.7832 48.7217 52.7832H12.8975C11.3148 52.7832 10.0315 51.5006 10.0312 49.918V14.0928C10.0313 12.51 11.3146 11.2266 12.8975 11.2266H48.7217ZM17.7461 19.0674C16.7169 18.0613 15.0049 18.3543 14.3691 19.6455C13.6784 21.0492 14.6973 22.6915 16.2617 22.6953L17.7256 22.6992C19.3985 22.7033 20.7519 24.0625 20.748 25.7354L20.7236 35.7891C20.7193 37.6452 22.22 39.1536 24.0762 39.1582C25.9325 39.1628 27.4417 37.661 27.4463 35.8047L27.4619 29.3242C27.4625 29.0865 27.4845 28.8539 27.5254 28.6279L42.5811 43.3457C44.1066 44.8368 46.6745 43.7592 46.6797 41.626C46.6829 40.2936 45.6058 39.2113 44.2734 39.208L41.0029 39.1992C37.8647 39.1913 35.3273 36.6412 35.335 33.5029L35.3447 29.3438C35.3501 27.1669 33.5899 25.398 31.4131 25.3926C29.474 25.3878 27.8589 26.7842 27.5254 28.6279L17.7461 19.0674Z" fill="white"/>
<path d="M81.2393 16.9531C88.2093 16.9531 92.3478 22.1807 92.3478 30.3487L92.4023 47.7194H83.7441V31.3833C83.7441 26.537 81.7293 24.2499 77.8631 24.2499C74.0514 24.2499 72.0366 26.3191 71.7099 31.6556V47.7194H63.0518V17.7699H71.7099C71.7099 21.5272 70.3485 25.5568 68.9872 28.7151L70.4574 29.1507C71.4921 23.1064 74.0514 16.9531 81.2393 16.9531Z" fill="white"/>
<path d="M107.91 46.9026C101.376 46.9026 97.346 41.7295 97.346 34.5961V17.7699H106.004V33.5615C106.004 38.3534 107.965 39.987 111.341 39.987C114.717 39.987 116.786 38.5168 117.004 32.5269V17.7699H125.662V45.4324C125.662 52.4024 122.122 58.3379 110.742 58.3379C101.43 58.3379 97.0738 54.635 95.9847 48.754L104.316 47.7739C104.915 50.6599 106.712 52.0212 110.796 52.0212C115.043 52.0212 117.004 50.0609 117.004 45.7046C117.004 42.0562 118.474 37.9722 119.835 35.0862L118.365 34.705C117.494 40.8038 115.261 46.9026 107.91 46.9026Z" fill="white"/>
<path d="M157.964 17.7699L161.341 34.9228C162.048 38.5712 162.048 41.2394 161.776 44.7245H163.246C162.92 41.2394 162.756 38.5168 163.573 34.9228L167.439 17.7699H176.261L169.019 47.7194H157.202L153.826 31.4922C153.009 27.1904 153.009 24.9578 153.281 21.3094H151.811C152.083 24.9578 152.138 27.1904 151.267 31.4922L147.89 47.7194H136.074L128.832 17.7699H137.653L141.574 34.9228C142.336 38.5168 142.227 41.2394 141.901 44.7245H143.371C143.044 41.2394 143.044 38.5712 143.752 34.9228L147.128 17.7699H157.964Z" fill="white"/>
<path d="M192.759 16.9531C202.833 16.9531 207.026 23.4331 206.754 33.3981H185.843C186.007 39.0068 188.675 42.1107 193.031 42.1107C197.333 42.1107 199.239 39.6058 199.892 35.2495L207.625 36.1752C206.427 44.2344 201.58 48.5362 192.813 48.5362C183.175 48.5362 177.621 42.8186 177.621 32.7447C177.621 22.6708 183.284 16.9531 192.759 16.9531ZM186.442 28.7151H198.858C198.531 25.5023 196.789 23.3786 192.759 23.3786C189.546 23.3786 187.314 25.2301 186.442 28.7151Z" fill="white"/>
<path d="M211.789 17.7699H220.447C220.447 21.5272 219.086 25.6112 217.724 28.7696L219.195 29.1507C220.011 23.9232 221.917 16.9531 228.397 16.9531C234.496 16.9531 237.436 22.0173 237.491 29.8586L228.778 30.7843C228.506 25.7202 227.363 23.8687 224.858 23.8687C222.189 23.8687 220.61 25.938 220.447 32.2001V47.7194H211.789V17.7699Z" fill="white"/>
<path d="M253.687 16.9531C261.856 16.9531 266.266 20.5471 266.266 27.5716V34.6505C266.266 41.8929 266.43 44.3977 267.192 47.7194H259.405C259.296 47.066 259.133 45.868 259.133 44.8334C259.133 41.9473 259.786 39.3336 260.658 36.9376L259.133 36.6653C258.969 43.7988 256.9 48.5362 248.787 48.5362C242.797 48.5362 238.931 45.269 238.931 40.4226C238.931 34.4872 242.688 31.9279 251.237 30.4576L258.425 29.2052V28.1706C258.425 25.2301 256.9 23.5965 253.579 23.5965C250.094 23.5965 248.46 25.2845 247.97 27.7894L240.237 26.7548C241.708 20.6015 246.01 16.9531 253.687 16.9531ZM252.381 35.3584C248.841 35.9574 247.371 37.0465 247.371 39.0613C247.371 40.6949 248.623 41.8929 251.292 41.8929C255.757 41.8929 257.826 39.6603 258.425 35.2495V34.3238L252.381 35.3584Z" fill="white"/>
</svg>
