<svg width="278" height="64" viewBox="0 0 278 64" fill="none" xmlns="http://www.w3.org/2000/svg">
<path d="M48.4531 11.2188C50.0359 11.2188 51.3193 12.5021 51.3193 14.085V49.9102C51.3191 51.4928 50.0358 52.7754 48.4531 52.7754H12.6289C11.0462 52.7754 9.76292 51.4928 9.7627 49.9102V14.085C9.76272 12.5021 11.0461 11.2188 12.6289 11.2188H48.4531ZM17.4775 19.0596C16.4483 18.0534 14.7363 18.3465 14.1006 19.6377C13.4099 21.0414 14.4287 22.6837 15.9932 22.6875L17.457 22.6914C19.13 22.6955 20.4834 24.0546 20.4795 25.7275L20.4551 35.7812C20.4508 37.6373 21.9515 39.1457 23.8076 39.1504C25.664 39.1549 27.1732 37.6532 27.1777 35.7969L27.1934 29.3164C27.194 29.0787 27.216 28.8461 27.2568 28.6201L42.3125 43.3379C43.838 44.829 46.4059 43.7514 46.4111 41.6182C46.4143 40.2858 45.3372 39.2035 44.0049 39.2002L40.7344 39.1914C37.5962 39.1834 35.0587 36.6334 35.0664 33.4951L35.0762 29.3359C35.0815 27.1591 33.3214 25.3902 31.1445 25.3848C29.2054 25.38 27.5904 26.7764 27.2568 28.6201L17.4775 19.0596Z" fill="#212121"/>
<path d="M81.5073 16.9531C88.4774 16.9531 92.6159 22.1807 92.6159 30.3487L92.6703 47.7194H84.0122V31.3833C84.0122 26.537 81.9974 24.2499 78.1312 24.2499C74.3195 24.2499 72.3047 26.3191 71.9779 31.6556V47.7194H63.3198V17.7699H71.9779C71.9779 21.5272 70.6166 25.5568 69.2553 28.7151L70.7255 29.1507C71.7601 23.1064 74.3195 16.9531 81.5073 16.9531Z" fill="#212121"/>
<path d="M108.178 46.9026C101.644 46.9026 97.6141 41.7295 97.6141 34.5961V17.7699H106.272V33.5615C106.272 38.3534 108.233 39.987 111.609 39.987C114.985 39.987 117.054 38.5168 117.272 32.5269V17.7699H125.93V45.4324C125.93 52.4024 122.391 58.3379 111.01 58.3379C101.698 58.3379 97.3418 54.635 96.2528 48.754L104.584 47.7739C105.183 50.6599 106.98 52.0212 111.064 52.0212C115.312 52.0212 117.272 50.0609 117.272 45.7046C117.272 42.0562 118.742 37.9722 120.103 35.0862L118.633 34.705C117.762 40.8038 115.529 46.9026 108.178 46.9026Z" fill="#212121"/>
<path d="M158.232 17.7699L161.609 34.9228C162.316 38.5712 162.316 41.2394 162.044 44.7245H163.514C163.188 41.2394 163.024 38.5168 163.841 34.9228L167.707 17.7699H176.529L169.287 47.7194H157.47L154.094 31.4922C153.277 27.1904 153.277 24.9578 153.549 21.3094H152.079C152.351 24.9578 152.406 27.1904 151.535 31.4922L148.159 47.7194H136.342L129.1 17.7699H137.921L141.842 34.9228C142.604 38.5168 142.495 41.2394 142.169 44.7245H143.639C143.312 41.2394 143.312 38.5712 144.02 34.9228L147.396 17.7699H158.232Z" fill="#212121"/>
<path d="M193.027 16.9531C203.101 16.9531 207.294 23.4331 207.022 33.3981H186.111C186.275 39.0068 188.943 42.1107 193.299 42.1107C197.601 42.1107 199.507 39.6058 200.16 35.2495L207.893 36.1752C206.695 44.2344 201.849 48.5362 193.082 48.5362C183.443 48.5362 177.889 42.8186 177.889 32.7447C177.889 22.6708 183.552 16.9531 193.027 16.9531ZM186.71 28.7151H199.126C198.799 25.5023 197.057 23.3786 193.027 23.3786C189.814 23.3786 187.582 25.2301 186.71 28.7151Z" fill="#212121"/>
<path d="M212.057 17.7699H220.715C220.715 21.5272 219.354 25.6112 217.992 28.7696L219.463 29.1507C220.279 23.9232 222.185 16.9531 228.665 16.9531C234.764 16.9531 237.705 22.0173 237.759 29.8586L229.046 30.7843C228.774 25.7202 227.631 23.8687 225.126 23.8687C222.458 23.8687 220.878 25.938 220.715 32.2001V47.7194H212.057V17.7699Z" fill="#212121"/>
<path d="M253.956 16.9531C262.124 16.9531 266.534 20.5471 266.534 27.5716V34.6505C266.534 41.8929 266.698 44.3977 267.46 47.7194H259.673C259.564 47.066 259.401 45.868 259.401 44.8334C259.401 41.9473 260.054 39.3336 260.926 36.9376L259.401 36.6653C259.238 43.7988 257.168 48.5362 249.055 48.5362C243.065 48.5362 239.199 45.269 239.199 40.4226C239.199 34.4872 242.956 31.9279 251.505 30.4576L258.693 29.2052V28.1706C258.693 25.2301 257.168 23.5965 253.847 23.5965C250.362 23.5965 248.728 25.2845 248.238 27.7894L240.505 26.7548C241.976 20.6015 246.278 16.9531 253.956 16.9531ZM252.649 35.3584C249.109 35.9574 247.639 37.0465 247.639 39.0613C247.639 40.6949 248.891 41.8929 251.56 41.8929C256.025 41.8929 258.094 39.6603 258.693 35.2495V34.3238L252.649 35.3584Z" fill="#212121"/>
</svg>
